<?xml version="1.0" encoding="UTF-8" standalone="no"?>
<svg width="32px" height="30px" viewBox="0 0 32 30" version="1.1" xmlns="http://www.w3.org/2000/svg" xmlns:xlink="http://www.w3.org/1999/xlink" xmlns:sketch="http://www.bohemiancoding.com/sketch/ns">
    <!-- Generator: Sketch 3.2.2 (9983) - http://www.bohemiancoding.com/sketch -->
    <title>Shape 2</title>
    <desc>Created with Sketch.</desc>
    <defs></defs>
    <g id="Page-1" stroke="none" stroke-width="1" fill="none" fill-rule="evenodd" sketch:type="MSPage">
        <g id="Left-Menu---Expanded" sketch:type="MSArtboardGroup" transform="translate(-24.000000, -20.000000)" fill="#ffffff">
            <g id="Left-Menu" sketch:type="MSLayerGroup">
                <g id="Option---Home" sketch:type="MSShapeGroup">
                    <path d="M43.1503571,38.8340972 C43.1503571,38.8340972 45.4706429,36.6009028 45.9763571,33.5979167 C47.3367143,33.5979167 48.177,30.4053472 46.8163571,29.2820833 C46.8733571,28.0996528 48.565,20 40,20 C31.4349286,20 33.1267857,28.0996528 33.1834286,29.2820833 C31.8229286,30.4053472 32.6630714,33.5979167 34.0235,33.5979167 C34.5291429,36.6009028 36.8495,38.8340972 36.8495,38.8340972 C36.8495,38.8340972 36.8315,40.9450694 36.0418571,41.0672222 C33.4982857,41.4606944 24,45.53375 24,50 L40,50 L56,50 C56,45.53375 46.5016429,41.4606944 43.958,41.0672222 C43.1683571,40.9450694 43.1503571,38.8340972 43.1503571,38.8340972 Z" id="Shape-2"></path>
                </g>
            </g>
        </g>
    </g>
</svg>