<?xml version="1.0" encoding="UTF-8" standalone="no"?>
<svg width="32px" height="28px" viewBox="0 0 32 28" version="1.1" xmlns="http://www.w3.org/2000/svg" xmlns:xlink="http://www.w3.org/1999/xlink" xmlns:sketch="http://www.bohemiancoding.com/sketch/ns">
    <!-- Generator: Sketch 3.2.2 (9983) - http://www.bohemiancoding.com/sketch -->
    <title>Shape</title>
    <desc>Created with Sketch.</desc>
    <defs></defs>
    <g id="Page-1" stroke="none" stroke-width="1" fill="none" fill-rule="evenodd" sketch:type="MSPage">
        <g id="Left-Menu---Expanded" sketch:type="MSArtboardGroup" transform="translate(-24.000000, -180.000000)" fill="#ffffff">
            <g id="Left-Menu" sketch:type="MSLayerGroup">
                <g id="Option---Team" transform="translate(0.000000, 160.000000)" sketch:type="MSShapeGroup">
                    <path d="M50.6417089,23.0851149 C48.7547114,22.1116176 46.8143712,21.292537 44.8273562,20.5674494 C44.5473071,19.9766372 43.5271282,19.9632097 42.9870335,20.0303474 C42.0001272,20.1646229 40.9933507,20.2988984 40.006511,20.3190397 C39.0196713,20.2988984 38.0128281,20.1646229 37.0259885,20.0303474 C36.4925616,19.9564959 35.4657149,19.9766372 35.1856658,20.5674494 C33.191983,21.2992508 31.2583106,22.1116176 29.3713131,23.0851149 C28.9179003,23.320097 23.8436774,26.1063135 24.0037054,26.3748645 C24.7571708,27.6370542 27.7777004,33.2967662 28.1510992,33.2967662 C28.6778582,33.2967662 29.5713482,32.3232689 30.0581002,32.497827 C30.0847715,33.6257412 30.1314464,46.6907468 30.1314464,47.4426896 C30.1314464,47.9193676 35.6724178,48 39.9998432,48 C44.3339363,48 49.8682399,47.9193676 49.8682399,47.4426896 C49.8749078,46.6841002 49.9148481,33.6257412 49.9415861,32.497827 C50.4283381,32.3232689 51.3218281,33.2967662 51.8485871,33.2967662 C52.2220526,33.2967662 55.2425155,27.6370542 55.9959809,26.3748645 C56.1626101,26.1130273 51.095055,23.320097 50.6417089,23.0851149 L50.6417089,23.0851149 Z M33.0519584,46.5027611 L31.4516778,46.5027611 L31.4516778,44.3879221 L33.0519584,44.3879221 L33.0519584,46.5027611 L33.0519584,46.5027611 Z M38.4128983,33.8137269 C38.4128983,33.8674371 38.3662234,33.9144335 38.3128807,33.9144335 L36.7259359,33.9144335 C36.6725932,33.9144335 36.6259183,33.8674371 36.6259183,33.8137269 L36.6259183,29.8391723 C36.6259183,29.758607 36.5325686,29.7048968 36.4658903,29.758607 C36.232516,29.9264513 36.0058096,30.0674406 35.785771,30.174861 C35.5457289,30.2957089 35.2456763,30.4165569 34.8989489,30.5306911 C34.8322705,30.5508324 34.7655922,30.503836 34.7655922,30.4299844 L34.7655922,29.1812223 C34.7655922,29.1342259 34.7922635,29.100657 34.8389384,29.0805157 C35.4057044,28.89253 35.8524494,28.6642617 36.1725055,28.3957107 C36.4925616,28.1338735 36.7392715,27.8116123 36.9259709,27.4356409 C36.9459744,27.402072 36.9793136,27.3752169 37.0193206,27.3752169 L38.3195486,27.3752169 C38.3728913,27.3752169 38.4195661,27.4222134 38.4195661,27.4759236 L38.4195661,33.8137269 L38.4128983,33.8137269 L38.4128983,33.8137269 Z M44.360541,33.8137269 C44.360541,33.8674371 44.3138662,33.9144335 44.2605235,33.9144335 L42.6735786,33.9144335 C42.6202359,33.9144335 42.573561,33.8674371 42.573561,33.8137269 L42.573561,29.8391723 C42.573561,29.758607 42.4802113,29.7048968 42.413533,29.758607 C42.1801587,29.9264513 41.953519,30.0674406 41.7334138,30.174861 C41.4933717,30.2957089 41.1933191,30.4165569 40.8465916,30.5306911 C40.7799133,30.5508324 40.7132349,30.503836 40.7132349,30.4299844 L40.7132349,29.1812223 C40.7132349,29.1342259 40.7399062,29.100657 40.7866478,29.0805157 C41.3534138,28.89253 41.8000921,28.6642617 42.1202149,28.3957107 C42.440271,28.1338735 42.6869809,27.8116123 42.8736803,27.4356409 C42.8936838,27.402072 42.927023,27.3752169 42.9669634,27.3752169 L44.267258,27.3752169 C44.3206007,27.3752169 44.3672755,27.4222134 44.3672755,27.4759236 L44.3672755,33.8137269 L44.360541,33.8137269 L44.360541,33.8137269 Z" id="Shape"></path>
                </g>
            </g>
        </g>
    </g>
</svg>