<?xml version="1.0" encoding="UTF-8" standalone="no"?>
<svg width="24px" height="24px" viewBox="0 0 24 24" version="1.1" xmlns="http://www.w3.org/2000/svg" xmlns:xlink="http://www.w3.org/1999/xlink" xmlns:sketch="http://www.bohemiancoding.com/sketch/ns">
    <!-- Generator: Sketch 3.2.2 (9983) - http://www.bohemiancoding.com/sketch -->
    <title>icon-help</title>
    <desc>Created with Sketch.</desc>
    <defs></defs>
    <g id="Icons-Matrix" stroke="none" stroke-width="1" fill="none" fill-rule="evenodd" sketch:type="MSPage">
        <g id="icons-24-sprite" sketch:type="MSArtboardGroup" transform="translate(-48.000000, 0.000000)" fill="#C8C8C8">
            <path d="M60,0 C53.4,0 48,5.4 48,12 C48,18.6 53.4,24 60,24 C66.6,24 72,18.6 72,12 C72,5.4 66.6,0 60,0 L60,0 Z M61.2,20.4 L58.8,20.4 L58.8,18 L61.2,18 L61.2,20.4 L61.2,20.4 Z M63.72,11.16 L62.64,12.24 C61.68,13.08 61.2,13.8 61.2,15.6 L58.8,15.6 L58.8,15 C58.8,13.68 59.28,12.48 60.24,11.64 L61.68,10.08 C62.16,9.72 62.4,9.12 62.4,8.4 C62.4,7.08 61.32,6 60,6 C58.68,6 57.6,7.08 57.6,8.4 L55.2,8.4 C55.2,5.76 57.36,3.6 60,3.6 C62.64,3.6 64.8,5.76 64.8,8.4 C64.8,9.48 64.32,10.44 63.72,11.16 L63.72,11.16 Z" id="icon-help" sketch:type="MSShapeGroup"></path>
        </g>
    </g>
</svg>