<?xml version="1.0" encoding="UTF-8" standalone="no"?>
<svg width="28px" height="32px" viewBox="0 0 28 32" version="1.1" xmlns="http://www.w3.org/2000/svg" xmlns:xlink="http://www.w3.org/1999/xlink" xmlns:sketch="http://www.bohemiancoding.com/sketch/ns">
    <!-- Generator: Sketch 3.2.2 (9983) - http://www.bohemiancoding.com/sketch -->
    <title>Shape</title>
    <desc>Created with Sketch.</desc>
    <defs></defs>
    <g id="Page-1" stroke="none" stroke-width="1" fill="none" fill-rule="evenodd" sketch:type="MSPage">
        <g id="Left-Menu---Expanded" sketch:type="MSArtboardGroup" transform="translate(-26.000000, -260.000000)" fill="#ffffff">
            <g id="Left-Menu" sketch:type="MSLayerGroup">
                <g id="Option---Players" transform="translate(0.000000, 240.000000)" sketch:type="MSShapeGroup">
                    <path d="M32.7629904,48.6070686 C32.7629904,50.4432432 31.2480805,51.9334719 29.3814952,51.9334719 C27.5149098,51.9334719 26,50.4432432 26,48.6070686 C26,46.770894 27.5135572,45.2806653 29.3814952,45.2806653 C31.2494331,45.2806653 32.7629904,46.7695634 32.7629904,48.6070686 L32.7629904,48.6070686 Z M44.2600739,26.6528067 C46.1280119,26.6528067 47.6415691,25.1639085 47.6415691,23.3264033 C47.6415691,21.4888981 46.1280119,20 44.2600739,20 C42.392136,20 40.8785788,21.4888981 40.8785788,23.3264033 C40.8785788,25.1639085 42.3934886,26.6528067 44.2600739,26.6528067 L44.2600739,26.6528067 Z M53.7823644,35.1098545 L50.8080012,30.5859459 C50.6835622,30.3983368 50.5117822,30.2439917 50.3156555,30.1375468 L47.143813,28.4583784 C45.6897701,27.5429522 41.1112256,26.530395 39.2541085,27.0519751 C39.2297617,27.0572973 39.2094728,27.0706029 39.1824208,27.0772557 C38.9917045,27.1051975 38.8050459,27.1664033 38.633266,27.279501 L33.6286531,30.6059044 C33.5731966,30.6444906 33.5190927,30.685738 33.4676939,30.7309771 L29.950939,33.9243243 C29.4017841,34.4232848 29.3679692,35.2641996 29.8738409,35.8044075 C30.1416553,36.0891476 30.5055042,36.2328482 30.8707057,36.2328482 C31.1980344,36.2328482 31.5267157,36.1157588 31.7877671,35.8802495 L35.2287766,32.7547609 L38.1598567,30.8054886 L34.6917952,38.8926403 L33.2850932,41.5950104 C32.8603774,42.4119751 33.1890587,43.4138877 34.019554,43.8356757 C34.2657268,43.9607484 34.5281308,44.0179626 34.7878297,44.0179626 C35.4019092,44.0179626 35.9956997,43.6906445 36.2946239,43.1131809 L36.5123922,42.6953846 L36.5489123,42.7525988 L39.3893683,38.7609148 L38.2180184,43.5017048 L35.9091335,49.7699792 C35.5912729,50.6308524 36.0443933,51.5861954 36.9222294,51.9002079 C37.1115931,51.9707277 37.3063673,52 37.4984362,52 C38.1896138,52 38.8388609,51.5808732 39.0863863,50.904948 L43.5513126,38.7955094 C43.5851275,38.6983784 43.5797171,38.6012474 43.5932431,38.5001247 L46.1550638,31.1767152 C46.1550638,31.1767152 46.1861736,31.107526 46.2389249,31.0037422 L48.7250002,32.3196674 L51.5140574,36.5575052 C51.771051,36.9513514 52.2092928,37.1655717 52.652945,37.1655717 C52.9072334,37.1655717 53.1601692,37.095052 53.3874057,36.9513514 C54.0096008,36.5508524 54.1881438,35.7272349 53.7823644,35.1098545 L53.7823644,35.1098545 Z" id="Shape"></path>
                </g>
            </g>
        </g>
    </g>
</svg>