<?xml version="1.0" encoding="UTF-8" standalone="no"?>
<svg width="21px" height="24px" viewBox="0 0 21 24" version="1.1" xmlns="http://www.w3.org/2000/svg" xmlns:xlink="http://www.w3.org/1999/xlink" xmlns:sketch="http://www.bohemiancoding.com/sketch/ns">
    <!-- Generator: Sketch 3.2.2 (9983) - http://www.bohemiancoding.com/sketch -->
    <title>icon-notifications</title>
    <desc>Created with Sketch.</desc>
    <defs></defs>
    <g id="Icons-Matrix" stroke="none" stroke-width="1" fill="none" fill-rule="evenodd" sketch:type="MSPage">
        <g id="icons-24-sprite" sketch:type="MSArtboardGroup" transform="translate(-26.000000, 0.000000)" fill="#C8C8C8">
            <path d="M36.5,24 C37.8588235,24 38.9705882,22.92 38.9705882,21.6 L34.0294118,21.6 C34.0294118,22.92 35.1411765,24 36.5,24 L36.5,24 Z M44.5294118,16.8 L44.5294118,10.2 C44.5294118,6.48 41.9352941,3.48 38.3529412,2.64 L38.3529412,1.8 C38.3529412,0.84 37.4882353,0 36.5,0 C35.5117647,0 34.6470588,0.84 34.6470588,1.8 L34.6470588,2.64 C31.0647059,3.48 28.4705882,6.48 28.4705882,10.2 L28.4705882,16.8 L26,19.2 L26,20.4 L47,20.4 L47,19.2 L44.5294118,16.8 L44.5294118,16.8 Z" id="icon-notifications" sketch:type="MSShapeGroup"></path>
        </g>
    </g>
</svg>