<?xml version="1.0" encoding="UTF-8" standalone="no"?>
<svg width="29px" height="32px" viewBox="0 0 29 32" version="1.1" xmlns="http://www.w3.org/2000/svg" xmlns:xlink="http://www.w3.org/1999/xlink" xmlns:sketch="http://www.bohemiancoding.com/sketch/ns">
    <!-- Generator: Sketch 3.2.2 (9983) - http://www.bohemiancoding.com/sketch -->
    <title>Rectangle-path + Shape</title>
    <desc>Created with Sketch.</desc>
    <defs></defs>
    <g id="Page-1" stroke="none" stroke-width="1" fill="none" fill-rule="evenodd" sketch:type="MSPage">
        <g id="Left-Menu---Expanded" sketch:type="MSArtboardGroup" transform="translate(-26.000000, -340.000000)" fill="#ffffff">
            <g id="Left-Menu" sketch:type="MSLayerGroup">
                <g id="Option---Calendar" transform="translate(0.000000, 320.000000)" sketch:type="MSShapeGroup">
                    <g id="Rectangle-path-+-Shape" transform="translate(26.000000, 20.000000)">
                        <rect id="Rectangle-path" x="6.44444444" y="14.4" width="8.05555556" height="8"></rect>
                        <path d="M25.7777778,3.2 L24.1666667,3.2 L24.1666667,0 L20.9444444,0 L20.9444444,3.2 L8.05555556,3.2 L8.05555556,0 L4.83333333,0 L4.83333333,3.2 L3.22222222,3.2 C1.45,3.2 0,4.64 0,6.4 L0,28.8 C0,30.56 1.45,32 3.22222222,32 L25.7777778,32 C27.55,32 29,30.56 29,28.8 L29,6.4 C29,4.64 27.55,3.2 25.7777778,3.2 L25.7777778,3.2 Z M25.7777778,28.8 L3.22222222,28.8 L3.22222222,11.2 L25.7777778,11.2 L25.7777778,28.8 L25.7777778,28.8 Z" id="Shape"></path>
                    </g>
                </g>
            </g>
        </g>
    </g>
</svg>