<?xml version="1.0" encoding="UTF-8" standalone="no"?>
<svg width="35px" height="32px" viewBox="0 0 35 32" version="1.1" xmlns="http://www.w3.org/2000/svg" xmlns:xlink="http://www.w3.org/1999/xlink" xmlns:sketch="http://www.bohemiancoding.com/sketch/ns">
    <!-- Generator: Sketch 3.2.2 (9983) - http://www.bohemiancoding.com/sketch -->
    <title>Group</title>
    <desc>Created with Sketch.</desc>
    <defs></defs>
    <g id="Page-1" stroke="none" stroke-width="1" fill="none" fill-rule="evenodd" sketch:type="MSPage">
        <g id="Left-Menu---Expanded" sketch:type="MSArtboardGroup" transform="translate(-23.000000, -100.000000)" fill="#FFFFFF">
            <g id="Left-Menu" sketch:type="MSLayerGroup">
                <g id="Option---League" transform="translate(0.000000, 80.000000)" sketch:type="MSShapeGroup">
                    <g id="Group" transform="translate(23.000000, 20.000000)">
                        <path d="M8.12760064,16.0174775 C8.12760064,21.0836757 12.3531462,25.1906667 17.5655879,25.1906667 C22.7780297,25.1906667 27.0036123,21.0836757 27.0036123,16.0174775 C27.0036123,10.9512793 22.7780297,6.84428829 17.5655879,6.84428829 C12.3531091,6.84428829 8.12760064,10.9512432 8.12760064,16.0174775 L8.12760064,16.0174775 Z M10.058607,19.9904144 C10.0383263,19.9874595 10.0180085,19.9874234 9.99802436,19.9895495 C9.86829449,19.7562162 9.74965042,19.5163243 9.64257415,19.2701982 C9.30670021,18.4984144 9.09495763,17.6903063 9.00994174,16.8587387 C9.0271822,16.8496937 9.04379237,16.8393514 9.05851165,16.8261982 L11.609285,14.5447928 L14.0687394,15.3302342 L15.1129555,18.4537658 L13.5059958,20.4891171 L10.058607,19.9904144 L10.058607,19.9904144 Z M26.0726642,16.8261622 C26.0873835,16.8393153 26.1039566,16.8496577 26.1212712,16.8587027 C26.0362553,17.6902703 25.8245127,18.4983423 25.4886388,19.2701622 C25.3815254,19.5162883 25.2629184,19.7561441 25.1331886,19.9895135 C25.1132044,19.9874234 25.0928867,19.9874595 25.0726059,19.9903784 L21.6252913,20.4890811 L20.0182945,18.4537297 L21.0625106,15.3301982 L23.521965,14.5447568 L26.0726642,16.8261622 L26.0726642,16.8261622 Z M17.9853655,10.0539459 L21.0034852,8.41120721 C21.0212447,8.40151351 21.0372987,8.38951351 21.0517585,8.37607207 C22.0195975,8.79354955 22.8917426,9.37545946 23.6455403,10.1081081 C23.7506515,10.2102703 23.8525371,10.3148108 23.9515678,10.4213694 C23.9433369,10.4383423 23.9368856,10.4562523 23.9331038,10.4750631 L23.2673994,13.7670991 L20.7232627,14.5795676 L17.9853655,12.6461982 L17.9853655,10.0539459 L17.9853655,10.0539459 Z M19.4465784,19.0701622 L20.9766419,21.008036 L19.6333686,24.0785586 C19.6253602,24.0969009 19.6202066,24.1159279 19.6172775,24.1352432 C18.9506462,24.2939459 18.2645869,24.3745586 17.5655879,24.3745586 C16.8666261,24.3745586 16.1805667,24.293982 15.5139354,24.1352432 C15.5110064,24.1159279 15.5058528,24.0969009 15.4978443,24.0785586 L14.1545339,21.008036 L15.6846345,19.0701261 L19.4465784,19.0701622 L19.4465784,19.0701622 Z M11.4855985,10.1081081 C12.2393962,9.37545946 13.1115413,8.79354955 14.0793803,8.37607207 C14.093803,8.38954955 14.1098199,8.40151351 14.1276536,8.41120721 L17.1457733,10.0539459 L17.1457733,12.6461982 L14.407839,14.5795676 L11.8637394,13.7670991 L11.198035,10.4750631 C11.194179,10.4562883 11.1878019,10.4383784 11.179571,10.4213694 C11.2786388,10.3148108 11.3805244,10.2102342 11.4855985,10.1081081 L11.4855985,10.1081081 Z" id="Shape"></path>
                        <path d="M4.32368644,22.6967207 C4.42408898,22.6904865 4.49657309,22.6464505 4.53190678,22.5832793 C4.76537606,23.0327568 5.02739407,23.4704865 5.31744174,23.8944865 C4.01306144,23.141982 2.59022246,23.2311712 1.93790254,23.3287207 C1.73550318,23.358991 1.65163665,23.5413694 1.76201271,23.709009 C3.17220869,25.8504144 5.75946504,25.886018 6.7164036,25.8182342 C6.7790625,25.8138018 6.83082097,25.7947027 6.86956568,25.7656216 C6.9920286,25.8887568 7.11727225,26.0101261 7.24537076,26.1295856 C9.31014831,28.0548829 11.9233581,29.3289369 14.7695922,29.8276757 C13.832786,30.3721802 13.2462394,31.1508468 12.9732839,31.5801441 C12.8656144,31.7494414 12.9539672,31.9298378 13.1568114,31.957009 C15.2453549,32.2367207 16.759179,31.0633514 17.5655508,30.203964 C18.3718485,31.0633874 19.8857468,32.2367207 21.9742903,31.957009 C22.1771716,31.9298378 22.2654873,31.7494414 22.1578178,31.5801441 C21.8822669,31.1468829 21.2872299,30.3576216 20.3350742,29.8125045 C23.147643,29.3032432 25.7286335,28.0352793 27.7724629,26.1296216 C27.9005244,26.0101982 28.025768,25.8887928 28.148268,25.7656937 C28.1870127,25.7947748 28.2387341,25.8138739 28.3014301,25.8183063 C29.2583686,25.8860901 31.8456621,25.8504865 33.255821,23.7090811 C33.366197,23.5414775 33.2823305,23.3590631 33.0799311,23.3287928 C32.4276112,23.2312432 31.0047722,23.1420541 29.700429,23.8945225 C29.9904767,23.4705225 30.2525318,23.0327928 30.4860011,22.5833153 C30.5213347,22.6465225 30.5938559,22.6905225 30.6942214,22.6967568 C31.5560593,22.7503784 33.7210911,22.6877838 34.9306674,20.8976577 C35.0430826,20.7313153 34.9589195,20.5488649 34.7561864,20.5206486 C33.969465,20.4111712 32.0786494,20.3473874 30.7983686,21.9372252 C31.1129237,21.2347387 31.3593697,20.506955 31.535,19.7609369 C31.5765996,19.7651892 31.6223888,19.7593874 31.6701801,19.7418739 C32.4735487,19.4472432 34.3941737,18.531027 34.6543379,16.4386667 C34.6789195,16.2411171 34.5181197,16.108036 34.3214301,16.1633153 C33.7180138,16.3329009 32.5022458,16.8039279 31.8170763,17.9597477 C31.8423623,17.6416216 31.8550794,17.3213694 31.8550794,16.9994234 C31.8550794,16.6243964 31.8379502,16.2523604 31.8041367,15.8834595 C32.555339,15.4718919 33.8759958,14.5091892 33.9038771,12.8171171 C33.9071769,12.6181622 33.7308422,12.5023784 33.5419756,12.5791712 C33.0199788,12.7914595 32.0451695,13.3088649 31.5605826,14.3432072 C31.4491684,13.8510631 31.3063136,13.3659099 31.1321663,12.8886126 C31.2104714,12.8891892 31.2891472,12.8487207 31.3449841,12.7664144 C31.7696557,12.1403243 32.5861494,10.5922523 31.6378125,8.98846847 C31.5357786,8.81592793 31.3196981,8.79981982 31.1933792,8.95643243 C30.8641049,9.36464865 30.3267214,10.2031712 30.3993167,11.2588468 C30.3853761,11.232973 30.371732,11.206991 30.3576059,11.1811892 C30.0528019,10.6239279 29.7020975,10.0858378 29.311054,9.57225225 C29.6630561,9.02118919 30.215715,7.84234234 29.5273199,6.61412613 C29.4293644,6.43935135 29.2127278,6.42356757 29.0896716,6.58266667 C28.7985858,6.9590991 28.3635328,7.69448649 28.4981939,8.60281081 C28.2743644,8.36 28.0407839,8.12457658 27.7984163,7.89700901 C27.8595922,7.86209009 27.9021186,7.79390991 27.9064566,7.7005045 C27.9309269,7.17675676 27.8368644,6.1925045 26.9181144,5.53621622 C26.7531621,5.41834234 26.5563612,5.49881081 26.5314831,5.69636036 C26.5064566,5.89502703 26.4976695,6.16165766 26.5550265,6.45344144 C26.2277913,5.82875676 25.546589,4.92771171 24.2714248,4.68789189 C24.0703972,4.65009009 23.933178,4.79873874 23.9968008,4.98789189 C24.1675742,5.49578378 24.6237977,6.4252973 25.749285,6.85646847 C25.280196,6.70032432 24.7266843,6.632 24.1069174,6.76353153 C23.9068538,6.80598198 23.8411547,6.99520721 23.9764089,7.14457658 C24.4068644,7.61978378 25.4463347,8.48515315 27.059375,8.0885045 C27.1159163,8.07459459 27.1601112,8.04962162 27.191589,8.01816216 C27.9300742,8.70951351 28.5713083,9.47059459 29.1066896,10.2851532 C28.5476536,9.75153153 27.6811441,9.21445045 26.4772034,9.25758559 C26.2725794,9.26493694 26.1685434,9.43895495 26.2676112,9.61315315 C26.6142744,10.2226306 27.5668008,11.4652252 29.5230932,11.3354955 C29.5937235,11.3308108 29.6500794,11.3071712 29.6894174,11.2717477 C29.997929,11.8563964 30.2554979,12.462991 30.4590466,13.0864865 C29.9609269,12.5353874 29.207018,12.0053333 28.1122299,11.901982 C27.9084216,11.8827387 27.7786547,12.0418018 27.849322,12.2286126 C28.0978814,12.8854775 28.8502331,14.2662703 30.8107521,14.442018 C30.9481568,15.1482162 31.0189354,15.870018 31.0189354,16.6006847 C31.0189354,16.9353153 31.0035858,17.2678198 30.9747034,17.5978018 C30.8506833,16.781009 30.380964,15.202018 28.6047881,14.5128288 C28.4146239,14.438991 28.238697,14.5550991 28.2444439,14.754018 C28.2662447,15.5089009 28.5548464,17.2492613 30.666303,17.9974414 C30.7779767,18.037045 30.8782309,18.0132252 30.9384428,17.9478198 C30.8263983,18.8907748 30.5973411,19.8104505 30.2570922,20.6924324 C30.2252436,19.7204685 29.8924841,18.4361081 28.5739778,17.5143423 C28.4078019,17.3980901 28.2045127,17.4665946 28.1527542,17.6591351 C27.9391208,18.4528649 27.6634958,20.4537658 29.7353919,21.8518198 C29.2670074,22.7558198 28.6752331,23.6094775 27.9680032,24.3952793 C28.3522987,23.3433874 28.6353761,21.6289369 27.3463453,20.0625586 C27.2184322,19.9071351 27.0024258,19.9176937 26.8944227,20.0868468 C26.4047934,20.8535856 25.3636917,22.9895856 27.2352648,25.1318198 C27.2373782,25.1342342 27.2396769,25.1362523 27.2418644,25.1385946 C27.1846928,25.1927207 27.1275953,25.2468468 27.0692744,25.3001802 C24.5188347,27.6305225 21.1232415,28.9216216 17.5098994,28.9356396 C13.8947034,28.9216216 10.4991472,27.6305586 7.94870763,25.3001802 C7.89034958,25.2468829 7.83325212,25.1927207 7.77611758,25.1385946 C7.77826801,25.1362883 7.78056674,25.1342342 7.78268008,25.1318198 C9.65425318,22.9895856 8.61318856,20.8535495 8.12352225,20.0868468 C8.01551907,19.9177658 7.79951271,19.9071351 7.67159958,20.0625586 C6.38256886,21.628973 6.66564619,23.3433514 7.04994174,24.3952432 C6.34271186,23.6094414 5.7509375,22.7558198 5.28255297,21.8518198 C7.35444915,20.4537658 7.07878708,18.4529009 6.86519068,17.6591351 C6.81335805,17.4665946 6.61014301,17.3981261 6.44389301,17.5143423 C5.12546081,18.4360721 4.79266419,19.7204685 4.76081568,20.6924324 C4.42056674,19.8104505 4.19154661,18.8908108 4.07946504,17.9478559 C4.13967691,18.0132252 4.23993114,18.0370811 4.3515678,17.9974775 C6.46302436,17.2493333 6.75158898,15.5089369 6.77342691,14.7540541 C6.77917373,14.5550991 6.60324682,14.439027 6.41308263,14.5128649 C4.63690678,15.202018 4.1671875,16.780973 4.04316737,17.5978018 C4.01428496,17.2678198 3.99893538,16.9353514 3.99893538,16.6007207 C3.99893538,15.870018 4.06971398,15.1482162 4.20711864,14.442018 C6.16760064,14.2663063 6.91995233,12.8855135 7.16851165,12.2286486 C7.23917903,12.0418739 7.10941208,11.8827748 6.90560381,11.902018 C5.81081568,12.0053694 5.05690678,12.5354234 4.55882415,13.0865225 C4.76237288,12.462991 5.01990466,11.8564324 5.32841631,11.2718198 C5.36779131,11.3072432 5.42411017,11.3308829 5.49477754,11.3355676 C7.45106992,11.4652613 8.4035964,10.2227027 8.75022246,9.61322523 C8.84929025,9.43906306 8.74525424,9.26500901 8.5406303,9.25765766 C7.33672669,9.21452252 6.47018008,9.7516036 5.91114407,10.2852252 C6.44652542,9.4707027 7.08772246,8.70958559 7.82620763,8.01823423 C7.85772246,8.04969369 7.9018803,8.07466667 7.95845869,8.08857658 C9.57153602,8.48518919 10.6109693,7.61985586 11.0414248,7.14464865 C11.1767161,6.99527928 11.1110169,6.80605405 10.9109534,6.7636036 C10.2911864,6.63207207 9.73763771,6.70036036 9.26862288,6.85654054 C10.394036,6.42536937 10.8502595,5.49581982 11.0210328,4.98796396 C11.0846557,4.79877477 10.9474364,4.65012613 10.7464089,4.68796396 C9.47128178,4.92778378 8.79007945,5.82886486 8.4628072,6.45351351 C8.52012712,6.16172973 8.51137712,5.8950991 8.48635064,5.69643243 C8.46147246,5.49888288 8.26470869,5.41845045 8.0996822,5.53628829 C7.1809322,6.19257658 7.08683263,7.17686486 7.11134004,7.70057658 C7.11571504,7.79401802 7.15824153,7.8621982 7.21941737,7.89708108 C6.97704979,8.12464865 6.74346928,8.36007207 6.51960275,8.60291892 C6.65426377,7.69459459 6.21921081,6.95920721 5.928125,6.58273874 C5.80510593,6.42363964 5.5884322,6.43942342 5.49047669,6.6141982 C4.80208157,7.84245045 5.35474047,9.0212973 5.70674258,9.57236036 C5.31569915,10.0859459 4.96503178,10.624036 4.66019068,11.1812973 C4.64606462,11.2071351 4.63238347,11.2330811 4.61847987,11.258955 C4.69107521,10.2032793 4.15369174,9.36475676 3.82441737,8.95654054 C3.69806144,8.79992793 3.48198093,8.81603604 3.37994703,8.98857658 C2.43164725,10.5923964 3.24814089,12.1404685 3.6728125,12.7665225 C3.72864936,12.8487928 3.80732521,12.8892252 3.8856303,12.8887207 C3.71152013,13.366018 3.56862818,13.8511712 3.45725106,14.3433153 C2.97262712,13.308973 1.9978178,12.7915315 1.47582097,12.5792793 C1.28691737,12.5024505 1.1106197,12.6182342 1.11391949,12.8172252 C1.14180085,14.5093333 2.4624947,15.472036 3.21369703,15.8835676 C3.17988347,16.2523964 3.16275424,16.6245045 3.16275424,16.9995315 C3.16275424,17.3214775 3.17550847,17.6417658 3.20079449,17.9598559 C2.515625,16.8040721 1.29985699,16.332973 0.696440678,16.1633874 C0.499713983,16.1081081 0.338951271,16.2411532 0.363532839,16.4387387 C0.62373411,18.5310631 2.54432203,19.4473153 3.34769068,19.7419459 C3.39548199,19.7594595 3.44127119,19.7652613 3.48287076,19.761009 C3.65850106,20.507027 3.90494703,21.2348108 4.21950212,21.9373333 C2.9392214,20.3475315 1.04836864,20.4112432 0.261684322,20.5207207 C0.0589883475,20.5489369 -0.0251747881,20.7313874 0.0872033898,20.8977297 C1.29681674,22.6877477 3.46184852,22.7503784 4.32368644,22.6967207 L4.32368644,22.6967207 Z" id="Shape"></path>
                        <path d="M20.4497881,2.09747748 L18.3131197,2.09747748 L17.6528655,0.122414414 C17.606446,-0.0163963964 17.5311811,-0.0163963964 17.4847617,0.122414414 L16.8245074,2.09747748 L14.687839,2.09747748 C14.5376059,2.09747748 14.5143591,2.16702703 14.6358951,2.25282883 L16.3645021,3.47347748 L15.7042479,5.44854054 C15.6578284,5.58738739 15.7187076,5.63034234 15.8402066,5.54454054 L17.5688506,4.32389189 L19.2974576,5.54454054 C19.4189195,5.63034234 19.4798358,5.58735135 19.4333792,5.44854054 L18.773125,3.47347748 L20.501732,2.25282883 C20.623268,2.16702703 20.6000212,2.09747748 20.4497881,2.09747748 L20.4497881,2.09747748 Z" id="Shape"></path>
                    </g>
                </g>
            </g>
        </g>
    </g>
</svg>