<?xml version="1.0" encoding="UTF-8" standalone="no"?>
<svg width="24px" height="24px" viewBox="0 0 24 24" version="1.1" xmlns="http://www.w3.org/2000/svg" xmlns:xlink="http://www.w3.org/1999/xlink" xmlns:sketch="http://www.bohemiancoding.com/sketch/ns">
    <!-- Generator: Sketch 3.2.2 (9983) - http://www.bohemiancoding.com/sketch -->
    <title>icon-messages</title>
    <desc>Created with Sketch.</desc>
    <defs></defs>
    <g id="Icons-Matrix" stroke="none" stroke-width="1" fill="none" fill-rule="evenodd" sketch:type="MSPage">
        <g id="icons-24-sprite" sketch:type="MSArtboardGroup" fill="#C8C8C8">
            <path d="M21.6,0 L2.4,0 C1.08,0 0,1.08 0,2.4 L0,24 L4.8,19.2 L21.6,19.2 C22.92,19.2 24,18.12 24,16.8 L24,2.4 C24,1.08 22.92,0 21.6,0 L21.6,0 Z M4.8,8.4 L19.2,8.4 L19.2,10.8 L4.8,10.8 L4.8,8.4 L4.8,8.4 Z M14.4,14.4 L4.8,14.4 L4.8,12 L14.4,12 L14.4,14.4 L14.4,14.4 Z M19.2,7.2 L4.8,7.2 L4.8,4.8 L19.2,4.8 L19.2,7.2 L19.2,7.2 Z" id="icon-messages" sketch:type="MSShapeGroup"></path>
        </g>
    </g>
</svg>