<?xml version="1.0" encoding="UTF-8" standalone="no"?>
<svg width="37px" height="38px" viewBox="0 0 37 38" version="1.1" xmlns="http://www.w3.org/2000/svg" xmlns:xlink="http://www.w3.org/1999/xlink" xmlns:sketch="http://www.bohemiancoding.com/sketch/ns">
    <!-- Generator: Sketch 3.2.2 (9983) - http://www.bohemiancoding.com/sketch -->
    <title>Logo</title>
    <desc>Created with Sketch.</desc>
    <defs></defs>
    <g id="Page-1" stroke="none" stroke-width="1" fill="none" fill-rule="evenodd" sketch:type="MSPage">
        <g id="Desktop-Second-page" sketch:type="MSArtboardGroup" transform="translate(-22.000000, -21.000000)" fill="#FFFFFF">
            <g id="Top" sketch:type="MSLayerGroup">
                <g id="Logo" transform="translate(22.000000, 21.000000)" sketch:type="MSShapeGroup">
                    <path d="M3.4722973,16.6503497 C4.03310811,18.7762238 4.98648649,20.958042 6.33243243,23.027972 C7.81858108,25.3496503 9.64121622,27.3076923 11.5760135,28.7902098 C10.7347973,27.5874126 9.9777027,26.2447552 9.30472973,24.8181818 C5.35101351,16.3986014 6.24831081,7.64335664 11.2956081,5.29370629 C13.6790541,4.17482517 16.5672297,4.70629371 19.3432432,6.46853147 C20.577027,6.32867133 21.7827703,6.3006993 22.9324324,6.32867133 C17.9692568,1.43356643 11.547973,-0.328671329 7.14560811,2.4965035 C3.13581081,5.04195804 1.87398649,10.6643357 3.44425676,16.5664336 C0.0793918919,20.1188811 -0.201013514,25.7692308 3.02364865,29.7972028 C3.7527027,30.6923077 4.56587838,31.4475524 5.49121622,32.034965 C4.84628378,30.972028 4.36959459,29.7972028 4.03310811,28.4825175 C1.28513514,25.013986 1.08885135,20.2307692 3.4722973,16.6503497 L3.4722973,16.6503497 Z" id="Shape"></path>
                    <path d="M27.2787162,8.03496503 C24.4185811,7.27972028 21.1097973,7.13986014 17.6888514,7.75524476 C14.9689189,8.25874126 12.4733108,9.18181818 10.3422297,10.3846154 C11.7722973,10.0769231 13.314527,9.88111888 14.8847973,9.7972028 C24.2222973,9.37762238 31.989527,13.5174825 32.2418919,19.0559441 C32.3540541,21.6853147 30.7557432,24.1748252 28.0358108,26.0769231 C27.5310811,27.3356643 26.7459459,28.5944056 25.7364865,29.8251748 C32.8027027,27.2797203 37.4013514,21.7412587 36.3918919,16.2867133 C35.6908784,12.3986014 32.297973,9.46153846 27.6712838,8.14685315 C26.6898649,4.09090909 23.1006757,0.93006993 18.5861486,0.566433566 C17.4364865,0.482517483 16.3148649,0.566433566 15.2773649,0.846153846 C16.4831081,1.0979021 17.6888514,1.57342657 18.8665541,2.18881119 C22.5959459,2.52447552 25.7925676,4.79020979 27.2787162,8.03496503 L27.2787162,8.03496503 Z" id="Shape"></path>
                    <path d="M32.0456081,27.3076923 C30.2790541,30.4685315 27.0263514,32.3986014 23.5493243,32.5384615 C25.5121622,30.1328671 27.0824324,26.972028 27.8675676,23.3636364 C28.4564189,20.6503497 28.5685811,18.020979 28.2601351,15.5874126 C27.9797297,17.041958 27.5871622,18.4965035 27.0543919,20.006993 C23.8577703,28.7622378 17.0158784,34.3006993 11.8003378,32.4265734 C9.30472973,31.5314685 7.65033784,29.0979021 6.92128378,25.8531469 C5.93986486,24.9020979 5.07060811,23.6993007 4.34155405,22.3006993 C3.97702703,29.7972028 7.34189189,36.1468531 12.7537162,37.3496503 C16.4550676,38.1608392 20.2685811,36.3986014 23.2408784,32.986014 C27.3067568,33.6013986 31.5408784,31.6153846 33.6719595,27.7552448 C34.2327703,26.7482517 34.5972973,25.6853147 34.7935811,24.6223776 C34.0364865,25.5734266 33.1111486,26.4965035 32.0456081,27.3076923 L32.0456081,27.3076923 Z" id="Shape"></path>
                </g>
            </g>
        </g>
    </g>
</svg>