<?xml version="1.0" encoding="UTF-8" standalone="no"?>
<svg width="130px" height="33px" viewBox="0 0 130 33" version="1.1" xmlns="http://www.w3.org/2000/svg" xmlns:xlink="http://www.w3.org/1999/xlink" xmlns:sketch="http://www.bohemiancoding.com/sketch/ns">
    <!-- Generator: Sketch 3.2.2 (9983) - http://www.bohemiancoding.com/sketch -->
    <title>Lettering</title>
    <desc>Created with Sketch.</desc>
    <defs>
        <linearGradient x1="3.87848325%" y1="5.328%" x2="96.1349206%" y2="94.2784%" id="linearGradient-1">
            <stop stop-color="#191919" offset="18.82%"></stop>
            <stop stop-color="#DA1F26" offset="86.77%"></stop>
        </linearGradient>
        <linearGradient x1="4.54971751%" y1="8.7432%" x2="95.4966102%" y2="90.8632%" id="linearGradient-2">
            <stop stop-color="#DA1F26" offset="33.33%"></stop>
            <stop stop-color="#191919" offset="92.47%"></stop>
        </linearGradient>
        <linearGradient x1="49.9797557%" y1="100.054829%" x2="49.9797557%" y2="-0.0641744548%" id="linearGradient-3">
            <stop stop-color="#FAA21B" offset="7.87879%"></stop>
            <stop stop-color="#DA1F26" offset="64.24%"></stop>
        </linearGradient>
    </defs>
    <g id="Page-1" stroke="none" stroke-width="1" fill="none" fill-rule="evenodd" sketch:type="MSPage">
        <g id="Desktop-Second-page" sketch:type="MSArtboardGroup" transform="translate(-101.000000, -24.000000)">
            <g id="Top" sketch:type="MSLayerGroup">
                <g id="Lettering" transform="translate(101.000000, 24.000000)" sketch:type="MSShapeGroup">
                    <path d="M122.420152,19.8605769 L122.506944,13.6787587 C122.535875,13.5895979 122.535875,13.2626748 122.535875,13.2032343 C122.535875,12.9060315 122.275499,12.7574301 121.754746,12.7574301 L116.952247,12.7574301 L115.505711,19.8605769 L111.339688,19.8605769 L114.23276,5.89204545 L118.398783,5.89204545 L117.617653,9.57736014 L123.317005,9.57736014 C123.722035,9.57736014 123.982411,9.51791958 124.127065,9.36931818 C124.271718,9.25043706 124.387441,8.98295455 124.474233,8.56687063 L125.13964,5.47596154 C125.16857,5.3868007 125.16857,5.29763986 125.16857,5.20847902 L125.16857,5.00043706 C125.16857,4.76267483 125.110709,4.61407343 124.966055,4.55463287 C124.850332,4.46547203 124.618887,4.43575175 124.300649,4.43575175 L110.384974,4.43575175 L111.166104,0.720716783 L127.049067,0.720716783 C128.003781,0.720716783 128.698118,0.899038462 129.103148,1.25568182 C129.537109,1.61232517 129.739624,2.14729021 129.739624,2.86057692 C129.739624,3.0388986 129.739624,3.21722028 129.710693,3.39554196 C129.681762,3.57386364 129.652831,3.78190559 129.623901,3.98994755 L128.78491,8.15078671 C128.582395,9.13155594 128.206296,9.81512238 127.685543,10.2312063 C127.16479,10.6472902 126.152215,11.4497378 125.515739,11.3605769 C125.776115,11.3902972 125.891838,11.3902972 126.239007,11.5983392 C126.557245,11.8063811 126.672968,12.1927448 126.701898,12.4602273 C126.730829,12.6088287 126.730829,12.7277098 126.730829,13.0843531 L126.615106,19.8605769 L122.420152,19.8605769 L122.420152,19.8605769 Z" id="Shape" fill="#191919"></path>
                    <path d="M17.575236,19.8605769 L20.4683076,5.89204545 L24.7789843,5.89204545 L24.1135779,9.01267483 L30.9412269,9.01267483 L30.3047512,12.0738636 L23.4771021,12.0738636 L22.667042,16.0563811 L32.156317,16.0563811 L31.3751877,19.8605769 L17.575236,19.8605769 L17.575236,19.8605769 Z M20.728684,4.49519231 L21.5098134,0.780157343 L35.3097651,0.780157343 L34.5286358,4.49519231 L20.728684,4.49519231 L20.728684,4.49519231 Z" id="Shape" fill="#191919"></path>
                    <path d="M44.3361486,19.8605769 L44.1336336,16.888549 L37.4217074,16.888549 L36.0041023,19.8605769 L31.953802,19.8605769 L41.6166613,0.750437063 L47.0845667,0.750437063 L48.5021718,19.8605769 L44.3361486,19.8605769 L44.3361486,19.8605769 Z M43.4103657,4.61407343 L38.897174,13.7679196 L43.9889801,13.7679196 L43.4103657,4.61407343 L43.4103657,4.61407343 Z" id="Shape" fill="#191919"></path>
                    <path d="M61.5788556,19.8605769 L49.1097169,19.8605769 L53.0442943,0.780157343 L57.2103175,0.780157343 L54.0858001,15.9969406 L62.359985,15.9969406 L61.5788556,19.8605769 Z" id="Shape" fill="#191919"></path>
                    <path d="M70.9813385,12.2819056 L69.4190798,19.8605769 L65.108403,19.8605769 L68.0014747,5.92176573 L72.3121514,5.92176573 L71.646745,9.07211538 L78.6479783,9.07211538 L77.9825719,12.2521853 L70.9813385,12.2521853 L70.9813385,12.2819056 Z M68.2618511,4.52491259 L69.0429805,0.780157343 L82.8140015,0.780157343 L82.0328722,4.52491259 L68.2618511,4.52491259 L68.2618511,4.52491259 Z" id="Shape" fill="#191919"></path>
                    <path d="M79.9209299,19.8605769 L82.8140015,5.89204545 L87.1246782,5.89204545 L86.4592718,9.01267483 L93.2869208,9.01267483 L92.6504451,12.0441434 L85.822796,12.0441434 L85.012736,16.0563811 L94.4730802,16.0563811 L93.7208816,19.8605769 L79.9209299,19.8605769 Z" id="Shape" fill="#191919"></path>
                    <path d="M83.0743779,4.49519231 L83.7397844,0.780157343 L99.4780942,0.780157343 L98.8126877,4.49519231 L83.0743779,4.49519231 Z" id="Shape" fill="url(#linearGradient-1)"></path>
                    <path d="M110.413905,4.49519231 L111.195034,0.780157343 L125.776115,0.780157343 L125.023917,4.49519231 L110.413905,4.49519231 Z" id="Shape" fill="url(#linearGradient-2)"></path>
                    <path d="M100.056708,19.8605769 L98.2340734,0.780157343 L102.54475,0.780157343 L103.586256,14.7189685 L110.645351,0.780157343 L114.811374,0.780157343 L104.743485,19.8605769 L100.056708,19.8605769 Z" id="Shape" fill="url(#linearGradient-3)"></path>
                    <path d="M11.6733698,19.8605769 L11.7601619,13.6787587 C11.7890927,13.5895979 11.7890927,13.2626748 11.7890927,13.2032343 C11.7890927,12.9060315 11.5287162,12.7574301 11.0079633,12.7574301 L6.20546439,12.7574301 L4.75892857,19.8605769 L0.592905405,19.8605769 L3.48597705,5.89204545 L7.6230695,5.89204545 L6.84194015,9.57736014 L12.5412913,9.57736014 C12.9463213,9.57736014 13.2066978,9.51791958 13.3513514,9.36931818 C13.4960049,9.25043706 13.6117278,8.98295455 13.6985199,8.56687063 L14.3639264,5.47596154 C14.3928571,5.3868007 14.3928571,5.29763986 14.3928571,5.20847902 L14.3928571,5.00043706 C14.3928571,4.76267483 14.3349957,4.61407343 14.1903421,4.55463287 C14.0746193,4.46547203 13.8431735,4.43575175 13.5249356,4.43575175 L3.65956135,4.43575175 L4.44069069,0.720716783 L16.3022844,0.720716783 C17.2569981,0.720716783 17.9513353,0.899038462 18.3563653,1.25568182 C18.790326,1.61232517 18.9928411,2.14729021 18.9928411,2.86057692 C18.9928411,3.0388986 18.9928411,3.21722028 18.9639103,3.39554196 C18.9349796,3.57386364 18.9060489,3.78190559 18.8771182,3.98994755 L18.0381274,8.15078671 C17.8356124,9.13155594 17.4595131,9.81512238 16.9387602,10.2312063 C16.4180073,10.6472902 15.4054322,11.4497378 14.7689565,11.3605769 C15.0293329,11.3902972 15.1450558,11.3902972 15.4922244,11.5983392 C15.8104622,11.8063811 15.9261851,12.1927448 15.9551158,12.4602273 C15.9840465,12.6088287 15.9840465,12.7277098 15.9840465,13.0843531 L15.8683237,19.8605769 L11.6733698,19.8605769 L11.6733698,19.8605769 Z" id="Shape" fill="#191919"></path>
                    <g id="Group" transform="translate(0.679698, 23.427010)" fill="#191919">
                        <path d="M0.665406478,7.19230769 L0.665406478,3.18006993 L0.0289307164,3.18006993 L0.0289307164,2.52622378 L0.665406478,2.52622378 L0.665406478,2.31818182 C0.665406478,1.66433566 0.81006006,1.06993007 1.18615937,0.683566434 C1.50439725,0.386363636 1.90942728,0.237762238 2.2855266,0.237762238 C2.57483376,0.237762238 2.83521021,0.297202797 2.97986379,0.386363636 L2.86414093,1.04020979 C2.74841806,0.980769231 2.57483376,0.921328671 2.34338803,0.921328671 C1.64905084,0.921328671 1.47546654,1.54545455 1.47546654,2.25874126 L1.47546654,2.4965035 L2.57483376,2.4965035 L2.57483376,3.15034965 L1.47546654,3.15034965 L1.47546654,7.16258741 L0.665406478,7.16258741 L0.665406478,7.19230769 Z" id="Shape"></path>
                        <path d="M11.1672565,6.06293706 C11.1672565,6.47902098 11.1961873,6.86538462 11.225118,7.16258741 L10.4729193,7.16258741 L10.4150579,6.56818182 L10.3861272,6.56818182 C10.1257508,6.92482517 9.63392857,7.25174825 8.99745281,7.25174825 C8.07166988,7.25174825 7.60877842,6.5979021 7.60877842,5.91433566 C7.60877842,4.78496503 8.59242278,4.19055944 10.3282658,4.19055944 L10.3282658,4.1013986 C10.3282658,3.71503497 10.2125429,3.03146853 9.28675997,3.03146853 C8.85279923,3.03146853 8.41883848,3.15034965 8.1006006,3.38811189 L7.9270163,2.82342657 C8.30311562,2.58566434 8.85279923,2.40734266 9.43141356,2.40734266 C10.8200879,2.40734266 11.1383258,3.38811189 11.1383258,4.30944056 L11.1383258,6.06293706 L11.1672565,6.06293706 Z M10.3571965,4.81468531 C9.46034427,4.78496503 8.4477692,4.96328671 8.4477692,5.8548951 C8.4477692,6.41958042 8.79493779,6.65734266 9.19996782,6.65734266 C9.80751287,6.65734266 10.1836122,6.27097902 10.299335,5.88461538 C10.3282658,5.79545455 10.3282658,5.70629371 10.3282658,5.61713287 L10.3282658,4.81468531 L10.3571965,4.81468531 Z" id="Shape"></path>
                        <path d="M17.1559148,3.8041958 C17.1559148,3.32867133 17.1559148,2.94230769 17.1269841,2.55594406 L17.850252,2.55594406 L17.9081135,3.32867133 L17.9370442,3.32867133 C18.1684899,2.88286713 18.6892428,2.46678322 19.4414414,2.46678322 C20.0779172,2.46678322 21.0326308,2.85314685 21.0326308,4.45804196 L21.0326308,7.22202797 L20.2225708,7.22202797 L20.2225708,4.5472028 C20.2225708,3.8041958 19.9621943,3.18006993 19.181065,3.18006993 C18.6603121,3.18006993 18.2263514,3.56643357 18.0816978,4.04195804 C18.0527671,4.16083916 18.0238363,4.27972028 18.0238363,4.42832168 L18.0238363,7.22202797 L17.2137763,7.22202797 L17.2137763,3.8041958 L17.1559148,3.8041958 Z" id="Shape"></path>
                        <path d="M27.9760028,1.42657343 L27.9760028,2.52622378 L29.1621622,2.52622378 L29.1621622,3.18006993 L27.9760028,3.18006993 L27.9760028,5.67657343 C27.9760028,6.24125874 28.1206564,6.56818182 28.5835478,6.56818182 C28.8149936,6.56818182 28.9307164,6.53846154 29.0464393,6.50874126 L29.07537,7.16258741 C28.9307164,7.22202797 28.67034,7.28146853 28.3521021,7.28146853 C27.9760028,7.28146853 27.6577649,7.13286713 27.4552499,6.92482517 C27.2238042,6.65734266 27.137012,6.24125874 27.137012,5.70629371 L27.137012,3.18006993 L26.4426748,3.18006993 L26.4426748,2.52622378 L27.137012,2.52622378 L27.137012,1.66433566 L27.9760028,1.42657343 L27.9760028,1.42657343 Z" id="Shape"></path>
                        <path d="M37.9281692,6.06293706 C37.9281692,6.47902098 37.9571,6.86538462 37.9860307,7.16258741 L37.233832,7.16258741 L37.1759706,6.56818182 L37.1470399,6.56818182 C36.8866634,6.92482517 36.3948413,7.25174825 35.7583655,7.25174825 C34.8325826,7.25174825 34.3696911,6.5979021 34.3696911,5.91433566 C34.3696911,4.78496503 35.3533355,4.19055944 37.0891785,4.19055944 L37.0891785,4.1013986 C37.0891785,3.71503497 36.9734556,3.03146853 36.0476727,3.03146853 C35.6137119,3.03146853 35.1797512,3.15034965 34.8615133,3.38811189 L34.687929,2.82342657 C35.0640283,2.58566434 35.6137119,2.40734266 36.1923263,2.40734266 C37.5810006,2.40734266 37.8992385,3.38811189 37.8992385,4.30944056 L37.8992385,6.06293706 L37.9281692,6.06293706 Z M37.1181092,4.81468531 C36.221257,4.78496503 35.2086819,4.96328671 35.2086819,5.8548951 C35.2086819,6.41958042 35.5558505,6.65734266 35.9608805,6.65734266 C36.5684256,6.65734266 36.9445249,6.27097902 37.0602477,5.88461538 C37.0891785,5.79545455 37.0891785,5.70629371 37.0891785,5.61713287 L37.0891785,4.81468531 L37.1181092,4.81468531 Z" id="Shape"></path>
                        <path d="M43.8011047,6.33041958 C44.0614811,6.47902098 44.4954419,6.65734266 44.9004719,6.65734266 C45.4790862,6.65734266 45.7683934,6.36013986 45.7683934,5.97377622 C45.7683934,5.55769231 45.5369477,5.34965035 44.9294026,5.14160839 C44.1193426,4.84440559 43.7143125,4.36888112 43.7143125,3.83391608 C43.7143125,3.09090909 44.3218576,2.46678322 45.2765712,2.46678322 C45.7394627,2.46678322 46.1444927,2.58566434 46.3759384,2.76398601 L46.1734234,3.38811189 C45.9998391,3.26923077 45.6816012,3.12062937 45.2476405,3.12062937 C44.7558183,3.12062937 44.4954419,3.41783217 44.4954419,3.74475524 C44.4954419,4.13111888 44.7558183,4.30944056 45.3344326,4.5472028 C46.115562,4.84440559 46.520592,5.26048951 46.520592,5.94405594 C46.520592,6.77622378 45.8841163,7.34090909 44.8426105,7.34090909 C44.3507883,7.34090909 43.8878968,7.19230769 43.5696589,7.01398601 L43.8011047,6.33041958 L43.8011047,6.33041958 Z" id="Shape"></path>
                        <path d="M52.5960425,2.52622378 L53.5796868,5.26048951 C53.6954097,5.55769231 53.8111326,5.94405594 53.868994,6.21153846 L53.8979247,6.21153846 C53.9847169,5.94405594 54.071509,5.58741259 54.1872319,5.23076923 L55.0840841,2.4965035 L55.9520056,2.4965035 L54.7079848,5.79545455 C54.1293704,7.40034965 53.7243404,8.2027972 53.1457261,8.70804196 C52.7406961,9.06468531 52.335666,9.21328671 52.133151,9.24300699 L51.930636,8.52972028 C52.133151,8.47027972 52.3935275,8.32167832 52.6539039,8.11363636 C52.8853496,7.93531469 53.1457261,7.60839161 53.3482411,7.16258741 C53.3771718,7.07342657 53.4061025,7.01398601 53.4061025,6.95454545 C53.4061025,6.8951049 53.3771718,6.83566434 53.3482411,6.7465035 L51.6702595,2.46678322 L52.5960425,2.46678322 L52.5960425,2.52622378 Z" id="Shape"></path>
                        <path d="M68.0161143,0.356643357 L68.8261744,0.356643357 L68.8261744,7.16258741 L68.0161143,7.16258741 L68.0161143,0.356643357 L68.0161143,0.356643357 Z" id="Shape"></path>
                        <path d="M75.3645163,5.02272727 C75.393447,6.1520979 76.0877842,6.62762238 76.926775,6.62762238 C77.5053893,6.62762238 77.8814886,6.50874126 78.1707958,6.38986014 L78.3154494,6.98426573 C78.0261422,7.13286713 77.53432,7.28146853 76.8110521,7.28146853 C75.4223777,7.28146853 74.583387,6.33041958 74.583387,4.93356643 C74.583387,3.53671329 75.393447,2.43706294 76.6953293,2.43706294 C78.1707958,2.43706294 78.5758258,3.77447552 78.5758258,4.60664336 C78.5758258,4.78496503 78.5758258,4.90384615 78.5468951,4.99300699 L75.3645163,4.99300699 L75.3645163,5.02272727 Z M77.7657658,4.3986014 C77.7657658,3.86363636 77.5632508,3.03146853 76.6374678,3.03146853 C75.798477,3.03146853 75.4513085,3.8041958 75.3645163,4.3986014 L77.7657658,4.3986014 L77.7657658,4.3986014 Z" id="Shape"></path>
                        <path d="M87.4286251,6.06293706 C87.4286251,6.47902098 87.4575558,6.86538462 87.4864865,7.16258741 L86.7342879,7.16258741 L86.6764264,6.56818182 L86.6474957,6.56818182 C86.3871193,6.92482517 85.8952971,7.25174825 85.2588213,7.25174825 C84.3330384,7.25174825 83.8701469,6.5979021 83.8701469,5.91433566 C83.8701469,4.78496503 84.8537913,4.19055944 86.5896343,4.19055944 L86.5896343,4.1013986 C86.5896343,3.71503497 86.4739114,3.03146853 85.5481285,3.03146853 C85.1141677,3.03146853 84.680207,3.15034965 84.3619691,3.38811189 L84.1883848,2.82342657 C84.5644841,2.58566434 85.1141677,2.40734266 85.6927821,2.40734266 C87.0814565,2.40734266 87.3996943,3.38811189 87.3996943,4.30944056 L87.3996943,6.06293706 L87.4286251,6.06293706 Z M86.618565,4.81468531 C85.7217128,4.78496503 84.7091377,4.96328671 84.7091377,5.8548951 C84.7091377,6.41958042 85.0563063,6.65734266 85.4613363,6.65734266 C86.0688814,6.65734266 86.4449807,6.27097902 86.5607036,5.88461538 C86.5896343,5.79545455 86.5896343,5.70629371 86.5896343,5.61713287 L86.5896343,4.81468531 L86.618565,4.81468531 Z" id="Shape"></path>
                        <path d="M97.2939994,6.50874126 C97.2939994,7.57867133 97.0914843,8.23251748 96.6575236,8.6486014 C96.1946321,9.06468531 95.5870871,9.21328671 95.0084728,9.21328671 C94.4587891,9.21328671 93.8801748,9.06468531 93.5040755,8.82692308 L93.7065905,8.17307692 C93.9958977,8.38111888 94.4587891,8.55944056 95.0374035,8.55944056 C95.8763943,8.55944056 96.4839393,8.11363636 96.4839393,6.92482517 L96.4839393,6.41958042 L96.4550086,6.41958042 C96.2235628,6.86538462 95.70281,7.19230769 95.0084728,7.19230769 C93.8801748,7.19230769 93.0701148,6.21153846 93.0701148,4.93356643 C93.0701148,3.35839161 94.0826898,2.46678322 95.1241956,2.46678322 C95.905325,2.46678322 96.3392857,2.88286713 96.5418007,3.26923077 L96.5707314,3.26923077 L96.5996622,2.55594406 L97.3229301,2.55594406 C97.2939994,2.88286713 97.2939994,3.26923077 97.2939994,3.83391608 L97.2939994,6.50874126 L97.2939994,6.50874126 Z M96.4839393,4.36888112 C96.4839393,4.22027972 96.4839393,4.1013986 96.4260779,3.98251748 C96.2814243,3.47727273 95.8763943,3.09090909 95.2688492,3.09090909 C94.4877199,3.09090909 93.9091055,3.77447552 93.9091055,4.84440559 C93.9091055,5.76573427 94.371997,6.50874126 95.2399185,6.50874126 C95.7606714,6.50874126 96.2235628,6.18181818 96.3682164,5.64685315 C96.4260779,5.49825175 96.4260779,5.34965035 96.4260779,5.20104895 L96.4260779,4.36888112 L96.4839393,4.36888112 Z" id="Shape"></path>
                        <path d="M107.101512,5.91433566 C107.101512,6.38986014 107.101512,6.83566434 107.130443,7.19230769 L106.407175,7.19230769 L106.349314,6.41958042 L106.320383,6.41958042 C106.117868,6.80594406 105.626046,7.28146853 104.815986,7.28146853 C104.092718,7.28146853 103.253727,6.86538462 103.253727,5.26048951 L103.253727,2.55594406 L104.063787,2.55594406 L104.063787,5.11188811 C104.063787,6.0034965 104.324163,6.5979021 105.076362,6.5979021 C105.626046,6.5979021 106.002145,6.21153846 106.146799,5.82517483 C106.20466,5.70629371 106.233591,5.55769231 106.233591,5.37937063 L106.233591,2.52622378 L107.043651,2.52622378 L107.043651,5.91433566 L107.101512,5.91433566 Z" id="Shape"></path>
                        <path d="M113.610923,5.02272727 C113.639854,6.1520979 114.334191,6.62762238 115.173182,6.62762238 C115.751796,6.62762238 116.127896,6.50874126 116.417203,6.38986014 L116.561856,6.98426573 C116.272549,7.13286713 115.780727,7.28146853 115.057459,7.28146853 C113.668785,7.28146853 112.829794,6.33041958 112.829794,4.93356643 C112.829794,3.53671329 113.639854,2.43706294 114.941736,2.43706294 C116.417203,2.43706294 116.822233,3.77447552 116.822233,4.60664336 C116.822233,4.78496503 116.822233,4.90384615 116.793302,4.99300699 L113.610923,4.99300699 L113.610923,5.02272727 Z M116.012173,4.3986014 C116.012173,3.86363636 115.809658,3.03146853 114.883875,3.03146853 C114.044884,3.03146853 113.697716,3.8041958 113.610923,4.3986014 L116.012173,4.3986014 L116.012173,4.3986014 Z" id="Shape"></path>
                        <path d="M122.376931,6.33041958 C122.637307,6.47902098 123.071268,6.65734266 123.476298,6.65734266 C124.054912,6.65734266 124.344219,6.36013986 124.344219,5.97377622 C124.344219,5.55769231 124.112773,5.34965035 123.505228,5.14160839 C122.695168,4.84440559 122.290138,4.36888112 122.290138,3.83391608 C122.290138,3.09090909 122.897683,2.46678322 123.852397,2.46678322 C124.315289,2.46678322 124.720319,2.58566434 124.951764,2.76398601 L124.749249,3.38811189 C124.575665,3.26923077 124.257427,3.12062937 123.823466,3.12062937 C123.331644,3.12062937 123.071268,3.41783217 123.071268,3.74475524 C123.071268,4.13111888 123.331644,4.30944056 123.910258,4.5472028 C124.691388,4.84440559 125.096418,5.26048951 125.096418,5.94405594 C125.096418,6.77622378 124.459942,7.34090909 123.418436,7.34090909 C122.926614,7.34090909 122.463723,7.19230769 122.145485,7.01398601 L122.376931,6.33041958 L122.376931,6.33041958 Z" id="Shape"></path>
                    </g>
                </g>
            </g>
        </g>
    </g>
</svg>