<?xml version="1.0" encoding="utf-8"?>
<!-- Generator: Adobe Illustrator 18.1.1, SVG Export Plug-In . SVG Version: 6.00 Build 0)  -->
<svg version="1.1" id="Layer_1" xmlns:sketch="http://www.bohemiancoding.com/sketch/ns"
	 xmlns="http://www.w3.org/2000/svg" xmlns:xlink="http://www.w3.org/1999/xlink" x="0px" y="0px" viewBox="-38 215 423 72"
	 enable-background="new -38 215 423 72" xml:space="preserve">
<title>S.TV_CMYK_onblack-BOX</title>
<desc>Created with Sketch.</desc>
<g id="Page-1" sketch:type="MSPage">
	<g id="S.TV_CMYK_onblack-BOX" sketch:type="MSLayerGroup">
		<path id="Fill-3" sketch:type="MSShapeGroup" fill="#4A4A4A" d="M-4.5,236.7c-1.3-4.7-4-9.6-9.5-9.6c-4.5,0-8.4,3.3-8.4,7.9
			c0,13.5,32.2,4.7,32.2,30.2c0,8.4-6.3,20.9-23.2,20.9c-13,0-22.4-6.3-24.6-19.7l13.7-2c1.2,5.8,4.2,10.1,10.7,10.1
			c5.4,0,9.9-2.8,9.9-8.7c0-13.7-32.2-5.8-32.2-29.1c0-12.3,10.4-21.1,22.3-21.1c11.6,0,20.3,7.5,21.5,19L-4.5,236.7"/>
		<path id="Fill-4" sketch:type="MSShapeGroup" fill="#4A4A4A" d="M31.5,247.2c7.5,0,18.3,1.2,18.3-9.5c0-10.7-10.8-9.5-18.3-9.5
			h-2.8v19H31.5L31.5,247.2z M41.3,216.6c15.9,0,22.5,11.7,22.5,21.6c0,10.4-6.2,20.7-26,20.7h-9.2v26.2H14.9v-68.5H41.3L41.3,216.6
			z"/>
		<path id="Fill-5" sketch:type="MSShapeGroup" fill="#4A4A4A" d="M162.9,245c6,0,15.1,0.4,15.1-8.2c0-9.4-9.2-8.6-16-8.6h-5.1V245
			H162.9L162.9,245z M170.2,216.6c15.8,0,21.9,11.3,21.9,20c0,7.5-4.7,14.4-11.6,17.2l13.6,31.2h-14.4l-12.3-28.4h-10.5v28.4h-13.7
			v-68.5H170.2L170.2,216.6z"/>
		<path id="Fill-6" sketch:type="MSShapeGroup" fill="#4A4A4A" d="M245.7,228.2h-17.8v56.9h-13.7v-56.9h-17.8v-11.6h49.3V228.2"/>
		<path id="Fill-7" sketch:type="MSShapeGroup" fill="#4A4A4A" d="M324.9,228.2h-17.8v56.9h-13.7v-56.9h-17.8v-11.6h49.3V228.2"/>
		<path id="Fill-8" sketch:type="MSShapeGroup" fill="#4A4A4A" d="M363.3,285.1h-12.5L330,216.6h14.2l12.9,50.9h0.2l12.8-50.9h14.2
			L363.3,285.1"/>
		<path id="Fill-9" sketch:type="MSShapeGroup" fill="#FFFFFF" d="M103.3,263.6c-7.6,0-13.8-6.2-13.8-13.8c0-7.6,6.2-13.8,13.8-13.8
			c7.6,0,13.8,6.2,13.8,13.8C117.1,257.5,110.9,263.6,103.3,263.6L103.3,263.6L103.3,263.6z M102.9,215.4
			c-19.2,0-34.8,15.6-34.8,34.8c0,19.2,15.6,34.8,34.8,34.8c19.2,0,34.8-15.6,34.8-34.8C137.8,231,122.2,215.4,102.9,215.4
			L102.9,215.4L102.9,215.4z"/>
		<path id="Fill-10" sketch:type="MSShapeGroup" fill="#FFFFFF" d="M275.5,249.1c0,7.6-6.2,13.8-13.8,13.8
			c-7.6,0-13.8-6.2-13.8-13.8c0-7.6,6.2-13.8,13.8-13.8C269.3,235.3,275.5,241.5,275.5,249.1"/>
	</g>
</g>
</svg>
