<?xml version="1.0" encoding="utf-8"?>
<!-- Generator: Adobe Illustrator 18.1.1, SVG Export Plug-In . SVG Version: 6.00 Build 0)  -->
<svg version="1.1" xmlns="http://www.w3.org/2000/svg" xmlns:xlink="http://www.w3.org/1999/xlink" x="0px" y="0px"
	 viewBox="0 0 510.3 156.4" enable-background="new 0 0 510.3 156.4" xml:space="preserve">
<g id="Layer_3">
</g>
<g id="Layer_4">
	<path fill="#FFFFFF" d="M77.5,65.1c-1.3-4.7-4-9.6-9.5-9.6c-4.5,0-8.4,3.3-8.4,7.9c0,13.5,32.2,4.7,32.2,30.2
		c0,8.4-6.3,20.9-23.2,20.9c-13,0-22.4-6.3-24.6-19.7l13.7-2c1.2,5.8,4.2,10.1,10.7,10.1c5.4,0,9.9-2.8,9.9-8.7
		c0-13.7-32.2-5.8-32.2-29.1c0-12.3,10.4-21.1,22.3-21.1c11.6,0,20.3,7.5,21.5,19L77.5,65.1L77.5,65.1z"/>
	<path fill="#FFFFFF" d="M123.4,45c15.9,0,22.5,11.7,22.5,21.6c0,10.4-6.2,20.7-26,20.7h-9.2v26.2H97V45H123.4L123.4,45z
		 M113.5,75.6c7.5,0,18.3,1.2,18.3-9.5c0-10.7-10.8-9.5-18.3-9.5h-2.8v19H113.5L113.5,75.6z"/>
	<path fill="#FFFFFF" d="M252.2,45c15.8,0,21.9,11.3,21.9,20c0,7.5-4.7,14.4-11.6,17.2l13.6,31.2h-14.4L249.4,85h-10.5v28.4h-13.7
		V45H252.2L252.2,45z M244.9,73.4c6,0,15.1,0.4,15.1-8.2c0-9.4-9.2-8.6-16-8.6h-5.1v16.8H244.9L244.9,73.4z"/>
	<polygon fill="#FFFFFF" points="327.7,56.6 309.9,56.6 309.9,113.4 296.2,113.4 296.2,56.6 278.4,56.6 278.4,45 327.7,45 
		327.7,56.6 	"/>
	<polygon fill="#FFFFFF" points="406.9,56.6 389.2,56.6 389.2,113.4 375.4,113.4 375.4,56.6 357.6,56.6 357.6,45 406.9,45 
		406.9,56.6 	"/>
	<polygon fill="#FFFFFF" points="445.3,113.4 432.8,113.4 412,45 426.1,45 439,95.8 439.2,95.8 452,45 466.2,45 445.3,113.4 	"/>
	<path fill="#FFD200" d="M185,43.8c-19.2,0-34.8,15.6-34.8,34.8c0,19.2,15.6,34.8,34.8,34.8s34.8-15.6,34.8-34.8
		C219.8,59.4,204.2,43.8,185,43.8L185,43.8z M185.3,92c-7.6,0-13.8-6.2-13.8-13.8c0-7.6,6.2-13.8,13.8-13.8
		c7.6,0,13.8,6.2,13.8,13.8C199.1,85.9,192.9,92,185.3,92L185.3,92z"/>
	<path fill="#FFD200" d="M357.5,77.5c0,7.6-6.2,13.8-13.8,13.8c-7.6,0-13.8-6.2-13.8-13.8c0-7.6,6.2-13.8,13.8-13.8
		C351.4,63.7,357.5,69.9,357.5,77.5"/>
</g>
</svg>
